<?xml version="1.0" encoding="UTF-8"?>
<svg id="_Слой_2" data-name="Слой 2" xmlns="http://www.w3.org/2000/svg" viewBox="0 0 126.31 268.46">
  <defs>
    <style>
      .cls-1 {
        fill: #006944;
      }
    </style>
  </defs>
  <g id="_Слой_1-2" data-name="Слой 1">
    <g>
      <path class="cls-1" d="M115.29,250.63c1.34-1.13,2.01-2.64,2.01-4.5s-.67-3.39-2.01-4.56c-1.34-1.17-3.08-1.77-5.23-1.77h-9.67v21.48h2.86v-8.88h3.65l6.82,8.88h3.65l-7.12-8.88c2.07-.04,3.75-.63,5.05-1.76ZM103.25,250.09v-7.91h6.63c1.38,0,2.48.35,3.29,1.06.81.71,1.22,1.67,1.22,2.89s-.41,2.13-1.22,2.86c-.81.73-1.91,1.1-3.29,1.1h-6.63Z"/>
      <path class="cls-1" d="M121.16,237.77c-1.64-1.6-3.56-2.85-5.75-3.74-2.19-.89-4.6-1.34-7.24-1.34s-5,.45-7.21,1.34c-2.21.89-4.13,2.14-5.78,3.74-1.64,1.6-2.91,3.5-3.8,5.69-.89,2.19-1.34,4.56-1.34,7.12s.45,4.93,1.34,7.12c.89,2.19,2.16,4.08,3.8,5.69,1.64,1.6,3.57,2.85,5.78,3.74,2.21.89,4.62,1.34,7.21,1.34s5.05-.45,7.24-1.34c2.19-.89,4.11-2.14,5.75-3.74,1.64-1.6,2.91-3.5,3.8-5.69.89-2.19,1.34-4.57,1.34-7.12s-.45-4.93-1.34-7.12c-.89-2.19-2.16-4.09-3.8-5.69ZM121.41,258.42c-1.32,2.31-3.12,4.14-5.41,5.48-2.29,1.34-4.9,2.01-7.82,2.01s-5.53-.67-7.82-2.01c-2.29-1.34-4.1-3.17-5.42-5.48-1.32-2.31-1.98-4.93-1.98-7.85s.66-5.59,1.98-7.88c1.32-2.29,3.13-4.11,5.42-5.45,2.29-1.34,4.9-2.01,7.82-2.01s5.53.67,7.82,2.01c2.29,1.34,4.1,3.16,5.41,5.45,1.32,2.29,1.98,4.92,1.98,7.88s-.66,5.54-1.98,7.85Z"/>
      <polygon class="cls-1" points="78.25 0 20.13 89.49 68.19 89.49 126.31 0 78.25 0"/>
      <polygon class="cls-1" points="58.12 178.97 0 268.46 48.05 268.46 106.17 178.97 58.12 178.97"/>
      <polygon class="cls-1" points="68.19 89.49 10.07 178.97 58.12 178.97 116.24 89.49 68.19 89.49"/>
    </g>
  </g>
</svg>