<?xml version="1.0" encoding="UTF-8"?>
<svg id="_Слой_2" data-name="Слой 2" xmlns="http://www.w3.org/2000/svg" viewBox="0 0 567.71 98.04">
  <defs>
    <style>
      .cls-1 {
        fill: #006944;
      }
    </style>
  </defs>
  <g id="_Слой_1-2" data-name="Слой 1">
    <g>
      <path class="cls-1" d="M567.24,35.62c-.31-.78-.77-1.45-1.35-2.03-.58-.57-1.27-1-2.04-1.32-.78-.31-1.63-.47-2.57-.47s-1.78.16-2.57.47c-.78.32-1.46.76-2.05,1.32-.58.58-1.03,1.24-1.34,2.03-.32.77-.49,1.62-.49,2.53s.16,1.74.49,2.53c.31.78.76,1.45,1.34,2.01.59.58,1.27,1.01,2.05,1.34.78.31,1.65.47,2.57.47s1.78-.16,2.57-.47c.77-.32,1.46-.76,2.04-1.34.58-.57,1.04-1.23,1.35-2.01.31-.78.47-1.62.47-2.53s-.16-1.76-.47-2.53ZM565.97,40.93c-.46.82-1.11,1.47-1.92,1.94-.81.47-1.73.72-2.77.72s-1.96-.24-2.78-.72c-.81-.47-1.45-1.12-1.92-1.94-.47-.82-.7-1.74-.7-2.78s.23-1.99.7-2.8c.47-.81,1.11-1.46,1.92-1.93.82-.47,1.74-.72,2.78-.72s1.96.24,2.77.72c.81.47,1.46,1.12,1.92,1.93.47.81.7,1.74.7,2.8s-.23,1.96-.7,2.78Z"/>
      <path class="cls-1" d="M563.81,38.17c.47-.41.72-.95.72-1.61s-.24-1.2-.72-1.62c-.47-.42-1.09-.62-1.86-.62h-3.43v7.62h1.01v-3.15h1.3l2.42,3.15h1.3l-2.53-3.15c.73-.01,1.34-.23,1.8-.62ZM559.53,37.97v-2.81h2.35c.5,0,.89.14,1.17.38.28.26.43.59.43,1.03s-.15.76-.43,1.01c-.28.27-.68.39-1.17.39h-2.35Z"/>
      <polygon class="cls-1" points="426.93 31.8 426.93 95.27 426.93 95.27 487.29 95.27 487.29 82.58 442.8 82.58 442.8 69.92 479.24 69.92 479.24 57.23 442.8 57.23 442.8 44.49 487.29 44.49 487.29 31.8 426.93 31.8"/>
      <path class="cls-1" d="M521.32,43.23c8.41,0,15.63,5.12,18.7,12.4h15.3c-3.58-15.21-17.24-26.53-33.55-26.53-19.03,0-34.47,15.43-34.47,34.47s15.43,34.46,34.47,34.46c16.3,0,29.96-11.32,33.55-26.53h-15.34c-3.09,7.25-10.29,12.33-18.67,12.33-11.22,0-20.3-9.09-20.3-20.3s9.09-20.3,20.3-20.3Z"/>
      <path class="cls-1" d="M72.61,94.8V31.8h-31.39L0,95.28h17.05l12.39-19.07h27.31v19.07h32.62l39.7-61.12v61.12h15.87V31.8h-31.39l-40.93,63.01ZM56.74,63.51h-19.07l19.07-29.35v29.35Z"/>
      <path class="cls-1" d="M193.69,95.28h17.05l12.39-19.07h27.31v19.07h15.87V31.8h-31.39l-41.22,63.48ZM250.43,63.51h-19.07l19.07-29.35v29.35Z"/>
      <polygon class="cls-1" points="330.77 31.76 313.71 31.76 293.09 63.52 310.14 63.52 329.73 33.36 329.73 95.27 345.6 95.27 345.6 31.79 330.74 31.79 330.77 31.76"/>
      <polygon class="cls-1" points="290.9 31.79 275.03 31.79 275.03 95.27 289.52 95.27 289.52 95.27 306.57 95.27 327.19 63.52 310.14 63.52 290.9 93.14 290.9 31.79"/>
      <polygon class="cls-1" points="317.29 0 296.66 31.76 313.71 31.76 334.34 0 317.29 0"/>
      <polygon class="cls-1" points="404.24 31.8 387.19 31.8 345.96 95.27 363.01 95.27 402.71 34.15 402.71 95.27 418.58 95.27 418.58 31.8 404.24 31.8 404.24 31.8"/>
      <polygon class="cls-1" points="214.8 31.8 151.33 31.8 151.33 44.49 173.79 44.49 173.79 95.27 189.66 95.27 189.66 44.49 214.8 44.49 214.8 31.8"/>
    </g>
  </g>
</svg>